<svg viewBox="0.25 2.5 19.75 19"
     xmlns="http://www.w3.org/2000/svg">
    <path d="m8 7.3c0-1.68016 0-2.52024.32698-3.16197.28762-.56449.74656-1.02343 1.31105-1.31105.64177-.32698 1.48177-.32698 3.16197-.32698h2.4c1.6802 0 2.5202 0 3.162.32698.5645.28762 1.0234.74656 1.311 1.31105.327.64173.327 1.48181.327 3.16197v9.4c0 1.6802 0 2.5202-.327 3.162-.2876.5645-.7465 1.0234-1.311 1.311-.6418.327-1.4818.327-3.162.327h-2.4c-1.6802 0-2.5202 0-3.16197-.327-.56449-.2876-1.02343-.7465-1.31105-1.311-.32698-.6418-.32698-1.4818-.32698-3.162v-1.45h4c1.7949 0 3.25-1.4551 3.25-3.25s-1.4551-3.25-3.25-3.25h-4zm-2.61612 2.58388c.48816-.48815.48816-1.27961 0-1.76776-.48815-.48816-1.27961-.48816-1.76776 0l-3.000003 2.99998c-.488156.4882-.488156 1.2796 0 1.7678l3.000003 3c.48815.4881 1.27961.4881 1.76776 0 .48816-.4882.48816-1.2796 0-1.7678l-.86611-.8661h7.48223c.6904 0 1.25-.5596 1.25-1.25s-.5596-1.25-1.25-1.25h-7.48223z"
          fill="currentColor"/>
</svg>
